<svg xmlns="http://www.w3.org/2000/svg" viewBox="0 0 120 24" role="img" aria-label="Prime Video">
  <rect width="120" height="24" rx="4" fill="#00A8E1"/>
  <path fill="#fff" d="M8 7.5h3.5l2.2 5.1L16 7.5h3.3l-4.2 9h-2.8L8 7.5zm12.8 0h3.2v9h-3.2v-9zm6.5 0h5.4c2.4 0 4 1.4 4 3.5 0 1.5-.8 2.6-2.1 3.1l2.4 2.4h-3.7l-2-2.2h-1v2.2h-3V7.5zm5.1 5.5c.9 0 1.4-.5 1.4-1.3s-.5-1.3-1.4-1.3h-1.9v2.6h1.9zM40.2 7.5h3.2l3.4 5.5V7.5H50v9h-3.1l-3.4-5.6v5.6h-3.3v-9zm12.2 0h5.5c2.7 0 4.5 1.7 4.5 4.5s-1.8 4.5-4.5 4.5h-5.5V7.5zm3.2 7.1h2c1.3 0 2-.7 2-2.1s-.7-2.1-2-2.1h-2v4.2zM64.8 7.5h3.2v9h-3.2v-9zm6.8 0h3.2l3.4 5.5V7.5h3.1v9h-3.1l-3.4-5.6v5.6h-3.2v-9zm12.5 0h5.4c2.4 0 4 1.4 4 3.5 0 1.5-.8 2.6-2.1 3.1l2.4 2.4H94l-2-2.2h-1v2.2h-3V7.5zm5.1 5.5c.9 0 1.4-.5 1.4-1.3s-.5-1.3-1.4-1.3h-1.9v2.6h1.9z"/>
</svg>
