<svg xmlns="http://www.w3.org/2000/svg" viewBox="0 0 120 24" role="img" aria-label="YouTube TV">
  <rect width="120" height="24" rx="4" fill="#FF0000"/>
  <path fill="#fff" d="M10 7.5h4.2c2.8 0 4.8 1.9 4.8 4.5s-2 4.5-4.8 4.5H10V7.5zm3.8 7.2c1.4 0 2.3-.9 2.3-2.7s-.9-2.7-2.3-2.7h-1v5.4h1zM24.5 16.5V7.5h3.1l3.4 5.5V7.5H34v9h-3.1l-3.4-5.6v5.6h-3zM38.2 16.5l4.6-9h3.4l4.6 9h-3.5l-.7-1.5h-4.2l-.7 1.5h-3.5zm5.4-3.5h2.6l-1.3-2.8-1.3 2.8zM56.2 7.5h3.2v9h-3.2v-9zm8.1 0c2.8 0 4.7 1.8 4.7 4.5s-1.9 4.5-4.7 4.5h-4.5V7.5h4.5zm0 7.2c1.3 0 2.1-.8 2.1-2.7s-.8-2.7-2.1-2.7h-1.3v5.4h1.3zM73.5 16.5V7.5h5.8v2.5h-2.6v1.4h2.4v2.4h-2.4v1.1h2.7v2.6h-5.9zM83.5 16.5l2.3-9h3.2l2.3 9h-3.1l-.4-1.6h-2.8l-.4 1.6h-3.1zm3.8-3.8h1.7l-.8-3.4-.9 3.4zM96.8 16.5V7.5h3.2v6.5h3.8v2.5h-7z"/>
</svg>
